<?xml version="1.0" standalone="no"?><!DOCTYPE svg PUBLIC "-//W3C//DTD SVG 1.1//EN" "http://www.w3.org/Graphics/SVG/1.1/DTD/svg11.dtd"><svg t="1638533182027" class="icon" viewBox="0 0 1024 1024" version="1.1" xmlns="http://www.w3.org/2000/svg" p-id="46477" xmlns:xlink="http://www.w3.org/1999/xlink" width="200" height="200"><defs><style type="text/css"></style></defs><path d="M763.648 969.472H261.12c-114.048 0-206.592-92.544-206.592-206.592V260.352C54.528 146.304 147.072 53.76 261.12 53.76h502.528C877.696 53.76 970.24 146.304 970.24 260.352V762.88c0 114.048-92.544 206.592-206.592 206.592z" fill="#00D16B" p-id="46478"></path><path d="M538.496 596.096h-96.64c-12.672 0-23.04-10.24-23.04-23.04 0-12.672 10.24-23.04 23.04-23.04h98.816c47.744 0 91.136-32.256 100.736-78.976 13.184-64.256-35.84-120.96-97.792-120.96H376.32c-56.576 0-106.752 46.336-105.216 102.912 0.768 28.032 12.928 53.632 33.408 71.808 8.32 7.296 10.24 19.456 4.608 28.928-7.296 12.16-24.064 15.232-34.56 5.888-47.616-42.24-65.536-113.92-32.64-177.152 25.728-49.408 79.104-78.336 134.784-78.336h166.912c86.784 0 156.16 76.16 144.768 165.248-9.6 73.472-75.776 126.72-149.888 126.72z" fill="#FFFFFF" p-id="46479"></path><path d="M649.216 719.104H486.4c-74.24 0-140.416-53.248-149.76-126.72-11.52-89.088 57.856-165.248 144.64-165.248h97.152c12.672 0 23.04 10.24 23.04 23.04 0 12.672-10.24 23.04-23.04 23.04h-94.336c-47.744 0-91.136 32.256-100.736 78.976-13.184 64.256 35.84 120.96 97.792 120.96h168.832c35.328 0 69.504-16.64 88.192-46.592 25.6-41.216 17.792-89.856-11.136-121.216-7.552-8.192-8.704-20.48-2.048-29.568 8.32-11.392 25.216-13.056 34.944-2.688 41.472 44.16 54.016 112.512 20.736 171.904-26.24 46.848-77.696 74.112-131.456 74.112z" fill="#FFFFFF" p-id="46480"></path></svg>