<?xml version="1.0" standalone="no"?><!DOCTYPE svg PUBLIC "-//W3C//DTD SVG 1.1//EN" "http://www.w3.org/Graphics/SVG/1.1/DTD/svg11.dtd"><svg t="1638525390692" class="icon" viewBox="0 0 1024 1024" version="1.1" xmlns="http://www.w3.org/2000/svg" p-id="46173" xmlns:xlink="http://www.w3.org/1999/xlink" width="200" height="200"><defs><style type="text/css"></style></defs><path d="M757.1456 950.016H270.8992c-107.264 0-194.2016-86.9376-194.2016-194.2016V269.5168c0-107.264 86.9376-194.2016 194.2016-194.2016h486.2464c107.264 0 194.2016 86.9376 194.2016 194.2016v486.2464c0 107.264-86.9376 194.2528-194.2016 194.2528z" fill="#F6648C" p-id="46174"></path><path d="M673.024 804.4544h-328.192c-51.3536 0-95.1808-34.9696-106.6496-84.992l-67.4816-294.4c-5.2224-22.8864 2.6624-46.4896 20.5824-61.6448 17.9712-15.1552 42.5472-18.944 64.2048-9.9328l77.6192 32.256c4.5568 1.8944 9.6768 0.6144 12.8512-3.1232l114.1248-134.4512c11.8272-13.9264 29.1328-21.9648 47.4112-22.016h0.2048c18.2272 0 35.4304 7.936 47.3088 21.76l118.784 138.1888c3.1232 3.6352 8.192 4.864 12.5952 3.1232l81.8688-32.4608c21.8624-8.6528 46.3872-4.4032 64.1024 11.0592 17.7152 15.4624 25.1392 39.2704 19.456 62.0544l-43.9296 176.3328a25.57952 25.57952 0 0 1-31.0272 18.6368 25.57952 25.57952 0 0 1-18.6368-31.0272l43.9296-176.3328c1.4336-5.7856-1.5872-9.472-3.4816-11.1616-1.9456-1.6896-5.9904-4.1472-11.52-1.9968l-81.8688 32.4608c-24.7296 9.8304-52.992 2.8672-70.3488-17.3056l-118.784-138.1888c-2.9184-3.3792-6.5536-3.8912-8.4992-3.8912h-0.0512c-1.9456 0-5.5808 0.512-8.4992 3.9424L384.9728 415.7952c-17.6128 20.7872-46.3872 27.648-71.5264 17.2544l-77.6192-32.3072c-5.4784-2.2528-9.5744 0.1536-11.52 1.792-1.9456 1.6384-5.0176 5.2736-3.6864 11.0592l67.4816 294.4c6.0928 26.624 29.44 45.2096 56.7296 45.2096h328.1408c26.7776 0 50.0224-18.176 56.5248-44.1344a25.57952 25.57952 0 0 1 31.0272-18.6368c13.7216 3.4304 22.0672 17.3056 18.6368 31.0272a109.21472 109.21472 0 0 1-106.1376 82.9952z" fill="#F7F8F8" p-id="46175"></path><path d="M605.4912 659.9168H417.7408c-14.1312 0-25.6-11.4688-25.6-25.6s11.4688-25.6 25.6-25.6h187.7504c14.1312 0 25.6 11.4688 25.6 25.6s-11.4688 25.6-25.6 25.6z" fill="#F7F8F8" p-id="46176"></path></svg>