<?xml version="1.0" standalone="no"?><!DOCTYPE svg PUBLIC "-//W3C//DTD SVG 1.1//EN" "http://www.w3.org/Graphics/SVG/1.1/DTD/svg11.dtd"><svg t="1638545398575" class="icon" viewBox="0 0 1024 1024" version="1.1" xmlns="http://www.w3.org/2000/svg" p-id="4662" xmlns:xlink="http://www.w3.org/1999/xlink" width="200" height="200"><defs><style type="text/css"></style></defs><path d="M235.52 310.613333h-91.022222a21.617778 21.617778 0 0 1-21.617778-21.617777v-91.022223c0-11.946667 9.671111-21.617778 21.617778-21.617777h91.022222c11.946667 0 21.617778 9.671111 21.617778 21.617777v91.022223c-0.568889 11.946667-10.24 21.617778-21.617778 21.617777zM879.502222 310.613333h-557.511111a21.617778 21.617778 0 0 1-21.617778-21.617777v-91.022223c0-11.946667 9.671111-21.617778 21.617778-21.617777h557.511111c11.946667 0 21.617778 9.671111 21.617778 21.617777v91.022223c0 11.946667-9.671111 21.617778-21.617778 21.617777zM879.502222 579.697778h-557.511111a21.617778 21.617778 0 0 1-21.617778-21.617778v-91.022222c0-11.946667 9.671111-21.617778 21.617778-21.617778h557.511111c11.946667 0 21.617778 9.671111 21.617778 21.617778v91.022222c0 11.946667-9.671111 21.617778-21.617778 21.617778zM879.502222 849.351111h-557.511111a21.617778 21.617778 0 0 1-21.617778-21.617778v-91.022222c0-11.946667 9.671111-21.617778 21.617778-21.617778h557.511111c11.946667 0 21.617778 9.671111 21.617778 21.617778v91.022222c0 11.946667-9.671111 21.617778-21.617778 21.617778zM235.52 579.697778h-91.022222a21.617778 21.617778 0 0 1-21.617778-21.617778v-91.022222c0-11.946667 9.671111-21.617778 21.617778-21.617778h91.022222c11.946667 0 21.617778 9.671111 21.617778 21.617778v91.022222c-0.568889 11.946667-10.24 21.617778-21.617778 21.617778zM235.52 849.351111h-91.022222a21.617778 21.617778 0 0 1-21.617778-21.617778v-91.022222c0-11.946667 9.671111-21.617778 21.617778-21.617778h91.022222c11.946667 0 21.617778 9.671111 21.617778 21.617778v91.022222c-0.568889 11.946667-10.24 21.617778-21.617778 21.617778z" p-id="4663" fill="#0d6efd"></path></svg>